<?xml version="1.0" encoding="utf-8"?>
<!-- Generator: Adobe Illustrator 25.0.1, SVG Export Plug-In . SVG Version: 6.00 Build 0)  -->
<svg version="1.1" id="Layer_1" xmlns="http://www.w3.org/2000/svg" xmlns:xlink="http://www.w3.org/1999/xlink" x="0px" y="0px"
	 viewBox="0 0 100 100" style="enable-background:new 0 0 100 100;" xml:space="preserve">
<style type="text/css">
	.st0{fill:#E21F26;}
</style>
<path class="st0" d="M76.41,50.73c-0.9,3.2-5.87,7.75-11.96,6.34l2.86-9.45c1.02-0.09,2.59,0,3.37,0
	C73.7,47.62,77.14,48.12,76.41,50.73 M89.45,44.93c-5.76-2.16-13.13-3.46-21.18-3.46c-7.95,0-15.24,1.27-20.97,3.38
	c-0.58,0.91-2.22,1.36-4.93,1.36c-1.24,0-2.92-0.16-5.05-0.5c-2.13-0.33-3.89-0.5-5.28-0.5c-2.02,0-4.6,0.4-7.75,1.2
	c-0.26,0.07-0.36,0.21-0.28,0.42c0.07,0.24,0.24,0.35,0.5,0.31c1.09-0.18,2.62-0.26,4.61-0.26c2.02,0,4.5,0.68,7.44,2.04
	c2.94,1.36,5.42,2.04,7.44,2.04c1.76,0,2.94,0.05,3.54,0.16c1.27,0.28,1.91,0.87,1.91,1.77c0,0.87-0.67,1.43-2.02,1.67
	c-0.56,0.1-1.8,0.16-3.71,0.16c-2.36,0-5.37-0.57-9.04-1.72c-3.67-1.15-6.72-1.72-9.15-1.72c-2.02,0-4.61,0.6-7.78,1.8
	c-3.16,1.2-5.61,1.8-7.33,1.8c-0.82,0-2.1-0.3-3.82-0.89c-0.26-0.1-0.43-0.03-0.51,0.21c-0.07,0.24,0.02,0.42,0.28,0.52
	c3.29,1.08,6.12,1.62,8.48,1.62c0.86,0,1.96-0.08,3.28-0.23c1.33-0.16,2.44-0.23,3.34-0.23c2.84,0,4.27,0.64,4.27,1.93
	c0,1.56-2.15,2.35-6.46,2.35c-1.09,0-2.47-0.05-4.16-0.16c-1.68-0.1-3.03-0.16-4.04-0.16c-2.1,0-4.02,0.28-5.78,0.83
	c-1.27,0.42-3.09,1.2-5.45,2.35c-0.19,0.07-0.28,0.19-0.28,0.37c0,0.38,0.21,0.51,0.62,0.37c2.58-0.94,4.77-1.41,6.57-1.41
	c2.17,0,4.89,0.49,8.17,1.46c3.27,0.98,5.98,1.46,8.11,1.46c2.39,0,5.39-0.58,8.98-1.75c3.59-1.17,6.57-1.75,8.93-1.75
	c3.29,0,4.94,0.66,4.94,1.98c0,1.22-1.18,1.83-3.54,1.83c-0.41,0-1.01-0.02-1.8-0.05c-0.79-0.03-1.35-0.05-1.68-0.05
	c-2.13,0-4.21,0.4-6.23,1.2c-1.83,0.77-3.65,1.51-5.45,2.24c-2.4,0.8-5.15,1.2-8.25,1.2c-3.41,0-6.03,0.26-7.86,0.78
	c-0.26,0.07-0.36,0.23-0.28,0.47c0.08,0.21,0.24,0.3,0.51,0.26c0.71-0.14,1.44-0.21,2.19-0.21c1.35,0,3.04,0.31,5.08,0.94
	c2.04,0.63,3.73,0.94,5.08,0.94c1.38,0,3.13-0.38,5.25-1.15c2.12-0.77,3.73-1.15,4.86-1.15c0.34,0,0.67,0.12,1.01,0.37
	c0.34,0.24,0.51,0.52,0.51,0.83c0,1.18-0.92,2.19-2.75,3.03c-1.61,0.7-3.16,1.05-4.66,1.05c-0.26,0-0.39,0.12-0.39,0.36
	c-0.04,0.21,0.08,0.33,0.34,0.37c1.94,0.14,4.02-0.24,6.23-1.15c0.11-0.03,1.89-0.89,5.33-2.56c1.98-0.97,3.61-1.46,4.89-1.46
	c0.56,0,1.35,0.16,2.36,0.47c-0.41,1.25-1.1,2.42-2.08,3.5c-0.45,0.49-0.92,0.92-1.4,1.31c-0.19,0.14-0.24,0.28-0.17,0.42
	c0.04,0.17,0.19,0.26,0.45,0.26l18.19-0.21c0.41,0,0.54-0.17,0.39-0.52c-0.41-0.9-0.62-1.55-0.62-1.93c0-2.02,0.69-4.72,2.08-8.09
	c2.25,3.53,3.37,6.22,3.37,8.05c0,0.31-0.16,0.6-0.48,0.86c-0.32,0.26-0.65,0.51-0.98,0.75c-0.19,0.14-0.24,0.3-0.17,0.47
	c0.04,0.14,0.19,0.21,0.45,0.21l18.53,0.1c0.26,0,0.43-0.07,0.51-0.21c0.07-0.17,0.02-0.33-0.17-0.47c-1.8-1.6-4.46-6.31-7.97-14.13
	c3.56-0.97,6.68-2.62,9.38-4.95c3.11-2.78,4.66-5.82,4.66-9.12C90.6,47.18,90.22,45.95,89.45,44.93 M5.54,47.04
	c0.94-0.14,1.63-0.21,2.08-0.21c1.23-0.03,2.65,0.32,4.24,1.07c1.59,0.75,2.89,1.11,3.9,1.07c1.57-0.03,3.31-0.43,5.22-1.2
	c0.19-0.07,0.24-0.21,0.17-0.42c-0.08-0.17-0.21-0.24-0.39-0.21c-0.97,0.1-1.7,0.16-2.19,0.16c-0.67,0.04-1.9-0.36-3.68-1.17
	c-1.78-0.82-3.1-1.21-3.96-1.18c-1.91,0.07-3.84,0.56-5.78,1.46c-0.19,0.1-0.22,0.24-0.11,0.42C5.15,47.04,5.31,47.11,5.54,47.04"/>
<path class="st0" d="M38.95,31.98c0.64,0.23,1.36,0.25,2.04,0.37c0.17,0.03,0.39,0.04,0.51,0.14c2.17,1.96,4.13,4.1,5.33,6.83
	c0.1,0.22,0.17,0.45,0.28,0.67c0.23,0.48,0.3,0.87-0.19,1.3c-0.49,0.43-0.34,1.19,0.08,1.74c0.04,0.05,0.08,0.11,0.12,0.16
	c5.76-2.17,13.17-3.48,21.24-3.48c8.08,0,15.48,1.31,21.24,3.48c0.07-0.09,0.15-0.18,0.23-0.27c0.49-0.49,0.44-1.3-0.1-1.77
	c-0.33-0.29-0.3-0.53-0.18-0.89c0.85-2.41,2.33-4.38,4.06-6.19c0.49-0.51,0.99-1.01,1.53-1.46c0.18-0.15,0.47-0.24,0.72-0.24
	c1.23-0.03,2.35-0.31,3.24-1.27c1.53-1.64,0.92-3.85-0.58-4.87c-1.43-0.98-3.62-0.94-5.02,0.08c-1.39,1.02-1.79,2.98-0.84,4.33
	c0.05,0.07,0.08,0.15,0.14,0.24c-1.99,2.71-4.47,4.75-7.6,5.95c-0.23,0.09-0.39,0.1-0.56-0.14c-1.2-1.68-1.57-3.62-1.8-5.65
	c0.91-0.15,1.67-0.56,2.26-1.25c1.01-1.17,0.85-2.92-0.36-3.94c-1.38-1.17-3.61-1.14-4.96,0.06c-1.37,1.22-1.24,3.36,0.29,4.45
	c0.33,0.23,0.36,0.4,0.19,0.75c-0.93,1.97-2.14,3.71-3.92,4.99c-0.22,0.16-0.38,0.22-0.64,0.07c-2.72-1.68-4.34-4.19-5.25-7.14
	c0.51-0.47,1.04-0.84,1.43-1.33c1.21-1.53,0.95-3.53-0.57-4.74c-1.48-1.18-3.78-1.3-5.34-0.27c-2.23,1.48-2.25,4.36-0.01,5.86
	c0.37,0.25,0.4,0.44,0.27,0.83c-0.96,2.79-2.51,5.1-5.01,6.71c-0.32,0.21-0.54,0.21-0.85-0.03c-1.87-1.38-3.11-3.23-4.02-5.38
	c0.08-0.07,0.15-0.14,0.23-0.2c1.92-1.36,1.82-3.79-0.19-4.99c-1.32-0.78-3.16-0.64-4.33,0.35c-0.8,0.68-1.18,1.56-1.01,2.63
	c0.2,1.23,1.05,1.9,2.09,2.36c0.23,0.1,0.49,0.15,0.78,0.23c-0.21,2.02-0.59,3.98-1.83,5.64c-0.09,0.12-0.39,0.16-0.55,0.11
	c-1.7-0.55-3.19-1.52-4.53-2.68c-1.03-0.9-1.91-1.97-2.84-2.99c-0.09-0.1-0.13-0.36-0.07-0.48c1.19-2.42-0.1-4.82-2.76-5.12
	c-1.35-0.15-2.57,0.15-3.6,1.11c-0.59,0.54-0.81,1.26-1.01,2v0.73C37.12,30.56,37.75,31.56,38.95,31.98"/>
<path class="st0" d="M76.61,50.84c-0.9,3.2-5.87,7.75-11.96,6.34l2.86-9.45c1.02-0.09,2.59,0,3.37,0
	C73.9,47.73,77.35,48.24,76.61,50.84 M89.66,45.04c-5.76-2.16-13.13-3.46-21.18-3.46c-7.95,0-15.24,1.27-20.97,3.38
	c-0.58,0.91-2.22,1.36-4.93,1.36c-1.24,0-2.92-0.16-5.05-0.5c-2.13-0.33-3.89-0.5-5.28-0.5c-2.02,0-4.6,0.4-7.75,1.2
	c-0.26,0.07-0.36,0.21-0.28,0.42c0.07,0.24,0.24,0.35,0.5,0.31c1.09-0.18,2.62-0.26,4.61-0.26c2.02,0,4.5,0.68,7.44,2.04
	c2.94,1.36,5.42,2.04,7.44,2.04c1.76,0,2.94,0.05,3.54,0.16c1.27,0.28,1.91,0.87,1.91,1.77c0,0.87-0.67,1.43-2.02,1.67
	c-0.56,0.1-1.8,0.16-3.71,0.16c-2.36,0-5.37-0.57-9.04-1.72c-3.67-1.15-6.72-1.72-9.15-1.72c-2.02,0-4.61,0.6-7.78,1.8
	c-3.16,1.2-5.61,1.8-7.33,1.8c-0.82,0-2.1-0.3-3.82-0.89c-0.26-0.1-0.43-0.03-0.51,0.21c-0.07,0.24,0.02,0.42,0.28,0.52
	c3.29,1.08,6.12,1.62,8.48,1.62c0.86,0,1.96-0.08,3.28-0.23c1.33-0.16,2.44-0.23,3.34-0.23c2.84,0,4.27,0.64,4.27,1.93
	c0,1.56-2.15,2.35-6.46,2.35c-1.09,0-2.47-0.05-4.16-0.16c-1.68-0.1-3.03-0.16-4.04-0.16c-2.1,0-4.02,0.28-5.78,0.83
	c-1.27,0.42-3.09,1.2-5.45,2.35c-0.19,0.07-0.28,0.19-0.28,0.37c0,0.38,0.21,0.51,0.62,0.37c2.58-0.94,4.77-1.41,6.57-1.41
	c2.17,0,4.89,0.49,8.17,1.46c3.27,0.98,5.98,1.46,8.11,1.46c2.39,0,5.39-0.58,8.98-1.75c3.59-1.17,6.57-1.75,8.93-1.75
	c3.29,0,4.94,0.66,4.94,1.98c0,1.22-1.18,1.83-3.54,1.83c-0.41,0-1.01-0.02-1.8-0.05c-0.79-0.03-1.35-0.05-1.68-0.05
	c-2.13,0-4.21,0.4-6.23,1.2c-1.83,0.77-3.65,1.51-5.45,2.24c-2.4,0.8-5.15,1.2-8.25,1.2c-3.41,0-6.03,0.26-7.86,0.78
	c-0.26,0.07-0.36,0.23-0.28,0.47c0.08,0.21,0.24,0.3,0.51,0.26c0.71-0.14,1.44-0.21,2.19-0.21c1.35,0,3.04,0.31,5.08,0.94
	c2.04,0.63,3.73,0.94,5.08,0.94c1.38,0,3.13-0.38,5.25-1.15c2.12-0.77,3.73-1.15,4.86-1.15c0.34,0,0.67,0.12,1.01,0.37
	c0.34,0.24,0.51,0.52,0.51,0.83c0,1.18-0.92,2.19-2.75,3.03c-1.61,0.7-3.16,1.05-4.66,1.05c-0.26,0-0.39,0.12-0.39,0.36
	c-0.04,0.21,0.08,0.33,0.34,0.37c1.94,0.14,4.02-0.24,6.23-1.15c0.11-0.03,1.89-0.89,5.33-2.56c1.98-0.97,3.61-1.46,4.89-1.46
	c0.56,0,1.35,0.16,2.36,0.47c-0.41,1.25-1.1,2.42-2.08,3.5c-0.45,0.49-0.92,0.92-1.4,1.31c-0.19,0.14-0.24,0.28-0.17,0.42
	c0.04,0.17,0.19,0.26,0.45,0.26l18.19-0.21c0.41,0,0.54-0.17,0.39-0.52c-0.41-0.9-0.62-1.55-0.62-1.93c0-2.02,0.69-4.72,2.08-8.09
	c2.25,3.53,3.37,6.22,3.37,8.05c0,0.31-0.16,0.6-0.48,0.86c-0.32,0.26-0.65,0.51-0.98,0.75c-0.19,0.14-0.24,0.3-0.17,0.47
	c0.04,0.14,0.19,0.21,0.45,0.21l18.53,0.1c0.26,0,0.43-0.07,0.51-0.21c0.07-0.17,0.02-0.33-0.17-0.47c-1.8-1.6-4.46-6.31-7.97-14.13
	c3.56-0.97,6.68-2.62,9.38-4.95c3.11-2.78,4.66-5.82,4.66-9.12C90.81,47.29,90.42,46.07,89.66,45.04 M5.74,47.15
	c0.94-0.14,1.63-0.21,2.08-0.21c1.23-0.03,2.65,0.32,4.24,1.07c1.59,0.75,2.89,1.11,3.9,1.07c1.57-0.03,3.31-0.43,5.22-1.2
	c0.19-0.07,0.24-0.21,0.17-0.42c-0.08-0.17-0.21-0.24-0.39-0.21c-0.97,0.1-1.7,0.16-2.19,0.16c-0.67,0.04-1.9-0.36-3.68-1.17
	c-1.78-0.82-3.1-1.21-3.96-1.18c-1.91,0.07-3.84,0.56-5.78,1.46c-0.19,0.1-0.22,0.24-0.11,0.42C5.35,47.15,5.52,47.22,5.74,47.15"/>
<path class="st0" d="M39.16,32.1c0.64,0.23,1.36,0.25,2.04,0.37c0.17,0.03,0.39,0.04,0.51,0.14c2.17,1.96,4.13,4.1,5.33,6.83
	c0.1,0.22,0.17,0.45,0.28,0.67c0.23,0.48,0.3,0.87-0.19,1.3c-0.49,0.43-0.34,1.19,0.08,1.74c0.04,0.05,0.08,0.11,0.12,0.16
	c5.76-2.17,13.17-3.48,21.24-3.48c8.08,0,15.48,1.31,21.24,3.48c0.07-0.09,0.15-0.18,0.23-0.27c0.49-0.49,0.44-1.3-0.1-1.77
	c-0.33-0.29-0.3-0.53-0.18-0.89c0.85-2.41,2.33-4.38,4.06-6.19c0.49-0.51,0.99-1.01,1.53-1.46c0.18-0.15,0.47-0.24,0.72-0.24
	c1.23-0.03,2.35-0.31,3.24-1.27c1.53-1.64,0.92-3.85-0.58-4.87c-1.43-0.98-3.62-0.94-5.02,0.08c-1.39,1.02-1.79,2.98-0.84,4.33
	c0.05,0.07,0.08,0.15,0.14,0.24c-1.99,2.71-4.47,4.75-7.6,5.95c-0.23,0.09-0.39,0.1-0.56-0.14c-1.2-1.68-1.57-3.62-1.8-5.65
	c0.91-0.15,1.67-0.56,2.26-1.25c1.01-1.17,0.85-2.92-0.36-3.94c-1.38-1.17-3.61-1.14-4.96,0.06c-1.37,1.22-1.24,3.36,0.29,4.45
	c0.33,0.23,0.36,0.4,0.19,0.75c-0.93,1.97-2.14,3.71-3.92,4.99c-0.22,0.16-0.38,0.22-0.64,0.07c-2.72-1.68-4.34-4.19-5.25-7.14
	c0.51-0.47,1.04-0.84,1.43-1.33c1.21-1.53,0.95-3.53-0.57-4.74c-1.48-1.18-3.78-1.3-5.34-0.27c-2.23,1.48-2.25,4.36-0.01,5.86
	c0.37,0.25,0.4,0.44,0.27,0.83c-0.96,2.79-2.51,5.1-5.01,6.71c-0.32,0.21-0.54,0.21-0.85-0.03c-1.87-1.38-3.11-3.23-4.02-5.38
	c0.08-0.07,0.15-0.14,0.23-0.2c1.92-1.36,1.82-3.79-0.19-4.99c-1.32-0.78-3.16-0.64-4.33,0.35c-0.8,0.68-1.18,1.56-1.01,2.63
	c0.2,1.23,1.05,1.9,2.09,2.36c0.23,0.1,0.49,0.15,0.78,0.23c-0.21,2.02-0.59,3.98-1.83,5.64c-0.09,0.12-0.39,0.16-0.55,0.11
	c-1.7-0.55-3.19-1.52-4.53-2.68c-1.03-0.9-1.91-1.97-2.84-2.99c-0.09-0.1-0.13-0.36-0.07-0.48c1.19-2.42-0.1-4.82-2.76-5.12
	c-1.35-0.15-2.57,0.15-3.6,1.11c-0.59,0.54-0.81,1.26-1.01,2v0.73C37.33,30.67,37.96,31.67,39.16,32.1"/>
</svg>
